<svg width="24" height="29" viewBox="0 0 24 29" fill="none" xmlns="http://www.w3.org/2000/svg">
<path d="M11.254 1.91305C10.7767 2.0254 10.3732 2.38334 10.186 2.85625C10.1174 3.02608 10.1148 3.06004 10.1016 3.68449L10.0857 4.33506L9.7429 4.41867C7.04765 5.09275 4.9616 7.13853 4.29702 9.75649C4.13087 10.4149 4.09131 10.7833 4.05967 11.9172C4.03329 12.8892 4.00956 13.1818 3.91462 13.8507C3.67199 15.5176 3.14718 16.8031 2.27426 17.8743C2.15558 18.018 1.91032 18.2949 1.72571 18.4883C1.17981 19.0631 1.06641 19.2825 1.06641 19.7685C1.06641 19.988 1.07959 20.082 1.1297 20.2336C1.30639 20.7666 1.75472 21.1533 2.30063 21.2473C2.48524 21.2787 3.84869 21.2839 11.7076 21.2761C20.2206 21.2708 20.909 21.2656 21.0408 21.2264C21.4048 21.1141 21.6843 20.9129 21.8795 20.6255C22.0667 20.3459 22.1379 20.1108 22.1379 19.7685C22.1353 19.2799 22.0219 19.0578 21.4812 18.4883C21.0514 18.0363 20.7692 17.694 20.5107 17.2995C19.7802 16.1969 19.3741 14.8958 19.1974 13.093C19.1816 12.9493 19.1578 12.4215 19.1446 11.9198C19.1183 10.9975 19.0813 10.5638 18.9838 10.0883C18.4273 7.33187 16.2938 5.1424 13.4614 4.41867L13.1186 4.33245L13.1054 3.69494C13.0922 3.09662 13.0869 3.04959 13.0236 2.87454C12.7599 2.15081 11.9925 1.73538 11.254 1.91305ZM12.367 6.40696C14.4266 6.69959 16.1567 8.2202 16.6894 10.2059C16.8292 10.7258 16.8529 10.9375 16.8766 11.865C16.9004 12.7298 16.9241 13.1139 16.9979 13.7461C17.1298 14.8905 17.3909 15.9617 17.7759 16.9337C18.008 17.5189 18.5064 18.4203 18.8545 18.8802L18.9627 19.0239L15.2837 19.0317C13.2583 19.0343 9.94597 19.0343 7.92321 19.0317L4.24427 19.0239L4.43152 18.7626C5.35719 17.4693 5.94793 15.8207 6.19319 13.8637C6.27231 13.221 6.30131 12.7925 6.32769 11.8519C6.35142 10.9401 6.37779 10.718 6.51493 10.2085C6.9237 8.68266 8.0498 7.39719 9.52665 6.77274C10.4207 6.3939 11.3938 6.26849 12.367 6.40696Z" fill="#E9D8A6"/>
<path d="M8.60176 23.0137C8.67824 24.1686 9.50897 25.2189 10.6456 25.5951C12.2227 26.1177 13.929 25.2711 14.4591 23.7009C14.5408 23.4579 14.6068 23.1104 14.6068 22.9144V22.7734H11.595H8.58594L8.60176 23.0137Z" fill="#E9D8A6"/>
</svg>
